{
  "asset": {
    "version": "2.0",
    "generator": "THREE.GLTFExporter"
  },
  "scenes": [
    {
      "nodes": [
        2
      ],
      "name": "Scene"
    }
  ],
  "scene": 0,
  "nodes": [
    {
      "matrix": [
        1,
        0,
        -2.4492903524937224e-16,
        0,
        0,
        1,
        0,
        0,
        2.4492903524937224e-16,
        0,
        1,
        0,
        2053.93,
        3693.87,
        -47303.1,
        1
      ],
      "name": "mountains",
      "mesh": 0
    },
    {
      "matrix": [
        1,
        0,
        0,
        0,
        0,
        1,
        0,
        0,
        0,
        0,
        1,
        0,
        12.536,
        2953.021582361768,
        -0.125883,
        1
      ],
      "name": "floor",
      "mesh": 1
    },
    {
      "matrix": [
        0.01,
        0,
        0,
        0,
        0,
        0.01,
        0,
        0,
        0,
        0,
        0.01,
        0,
        0,
        26.327065820505126,
        0,
        1
      ],
      "name": "africa",
      "children": [
        0,
        1
      ]
    }
  ],
  "bufferViews": [
    {
      "buffer": 0,
      "byteOffset": 0,
      "byteLength": 858024,
      "target": 34962,
      "byteStride": 12
    },
    {
      "buffer": 0,
      "byteOffset": 858024,
      "byteLength": 858024,
      "target": 34962,
      "byteStride": 12
    },
    {
      "buffer": 0,
      "byteOffset": 1716048,
      "byteLength": 572016,
      "target": 34962,
      "byteStride": 8
    },
    {
      "buffer": 0,
      "byteOffset": 2288064,
      "byteLength": 282528,
      "target": 34962,
      "byteStride": 12
    },
    {
      "buffer": 0,
      "byteOffset": 2570592,
      "byteLength": 282528,
      "target": 34962,
      "byteStride": 12
    },
    {
      "buffer": 0,
      "byteOffset": 2853120,
      "byteLength": 188352,
      "target": 34962,
      "byteStride": 8
    }
  ],
  "buffers": [
    {
      "byteLength": 3041472,
      "uri": "data:application/octet-stream;base64,"
    }
  ],
  "accessors": [
    {
      "bufferView": 0,
      "componentType": 5126,
      "count": 71502,
      "max": [
        49672.1015625,
        5643.72998046875,
        7546.18017578125
      ],
      "min": [
        -49672.1015625,
        -5643.72998046875,
        -7546.18017578125
      ],
      "type": "VEC3"
    },
    {
      "bufferView": 1,
      "componentType": 5126,
      "count": 71502,
      "max": [
        1,
        0.9999971389770508,
        0.9976341724395752
      ],
      "min": [
        -1,
        -0.6437937021255493,
        -0.9976341724395752
      ],
      "type": "VEC3"
    },
    {
      "bufferView": 2,
      "componentType": 5126,
      "count": 71502,
      "max": [
        1.4941799640655518,
        0.7764179706573486
      ],
      "min": [
        0.000036994901165599003,
        0.01927259936928749
      ],
      "type": "VEC2"
    },
    {
      "bufferView": 3,
      "componentType": 5126,
      "count": 23544,
      "max": [
        4251.14013671875,
        304.0610046386719,
        41050.19921875
      ],
      "min": [
        -4251.14013671875,
        -304.0610046386719,
        -41050.19921875
      ],
      "type": "VEC3"
    },
    {
      "bufferView": 4,
      "componentType": 5126,
      "count": 23544,
      "max": [
        1,
        1,
        0.9999175071716309
      ],
      "min": [
        -1,
        -0.9980587363243103,
        -0.8526669144630432
      ],
      "type": "VEC3"
    },
    {
      "bufferView": 5,
      "componentType": 5126,
      "count": 23544,
      "max": [
        1.1461999416351318,
        0.5508750081062317
      ],
      "min": [
        0.0005525510059669614,
        0.17309600114822388
      ],
      "type": "VEC2"
    }
  ],
  "materials": [
    {
      "pbrMetallicRoughness": {
        "metallicFactor": 0.5,
        "roughnessFactor": 0.5
      },
      "emissiveFactor": [
        1,
        0.7137254901960784,
        0.1843137254901961
      ]
    },
    {
      "pbrMetallicRoughness": {
        "baseColorFactor": [
          0.788235,
          0.572549,
          0.372549,
          1
        ],
        "metallicFactor": 0.5,
        "roughnessFactor": 0.5
      },
      "emissiveFactor": [
        1,
        0.8784313725490196,
        0.4117647058823529
      ],
      "name": "Sand"
    }
  ],
  "meshes": [
    {
      "primitives": [
        {
          "mode": 4,
          "attributes": {
            "POSITION": 0,
            "NORMAL": 1,
            "TEXCOORD_0": 2
          },
          "material": 0
        }
      ]
    },
    {
      "primitives": [
        {
          "mode": 4,
          "attributes": {
            "POSITION": 3,
            "NORMAL": 4,
            "TEXCOORD_0": 5
          },
          "material": 1
        }
      ]
    }
  ]
}